<?xml version="1.0" standalone="no"?>
<!DOCTYPE svg PUBLIC "-//W3C//DTD SVG 20010904//EN"
 "http://www.w3.org/TR/2001/REC-SVG-20010904/DTD/svg10.dtd">
<svg version="1.0" xmlns="http://www.w3.org/2000/svg"
 width="1024.000000pt" height="1024.000000pt" viewBox="0 0 1024.000000 1024.000000"
 preserveAspectRatio="xMidYMid meet">

<g transform="translate(0.000000,1024.000000) scale(0.100000,-0.100000)"
fill="#000000" stroke="none">
<path d="M4893 8705 c-228 -29 -457 -109 -636 -222 -46 -29 -51 -28 -167 20
-162 68 -362 105 -495 93 -306 -29 -621 -201 -825 -452 -246 -300 -390 -742
-335 -1029 34 -183 96 -294 242 -437 92 -90 167 -152 483 -395 308 -236 377
-286 465 -329 70 -35 77 -36 162 -33 74 3 98 9 147 34 74 37 130 93 187 184
24 39 47 69 51 68 4 -1 39 -28 78 -61 58 -48 71 -63 66 -80 -3 -11 -20 -97
-37 -191 -28 -153 -31 -196 -36 -437 -9 -444 21 -596 163 -809 120 -181 323
-343 539 -430 l90 -36 5 -75 c10 -136 92 -254 208 -299 52 -20 84 -22 342 -30
157 -4 503 -5 770 -1 475 8 486 8 535 30 69 32 131 95 155 160 19 50 20 78 20
556 l0 503 -31 62 c-35 70 -86 114 -153 132 -28 8 -104 9 -238 4 l-197 -7 -10
23 c-5 13 -14 50 -19 82 -25 132 -95 226 -210 280 -57 27 -81 33 -157 35 -129
5 -187 -18 -281 -112 -63 -63 -74 -80 -93 -140 -12 -37 -21 -90 -21 -117 0
-43 -3 -49 -24 -55 -29 -7 -282 -1 -290 7 -17 16 106 310 227 544 l62 119 63
32 c68 34 108 63 214 157 77 67 60 69 163 -14 28 -22 82 -55 120 -74 156 -78
280 -83 413 -20 90 43 96 47 492 354 394 306 561 466 628 601 65 134 85 236
79 405 -6 157 -33 282 -93 433 -96 239 -270 472 -456 613 -177 133 -430 227
-638 236 -173 8 -294 -17 -542 -113 l-47 -18 -163 82 c-168 84 -297 132 -422
158 -104 22 -415 27 -553 9z m454 -245 c158 -26 368 -110 518 -208 184 -119
328 -319 401 -557 27 -85 28 -100 29 -290 0 -156 -4 -219 -18 -285 -44 -207
-147 -453 -262 -626 -50 -75 -244 -274 -267 -274 -5 0 -13 12 -19 27 -17 46
-39 63 -79 63 -57 0 -69 -17 -248 -355 -186 -352 -271 -570 -293 -750 -28
-225 45 -405 196 -483 41 -21 64 -26 130 -26 68 -1 90 3 142 28 76 35 144 104
180 182 15 34 34 59 48 64 34 13 471 24 608 15 116 -7 117 -7 123 -33 35 -174
103 -251 253 -286 35 -8 65 -16 67 -18 2 -2 5 -134 6 -294 3 -318 3 -321 -59
-361 -25 -17 -74 -18 -740 -16 -570 1 -717 4 -739 15 -47 23 -86 96 -66 125 5
8 55 16 132 22 137 11 178 21 229 59 75 56 97 204 31 212 -28 4 -36 0 -70 -30
-46 -41 -79 -45 -243 -26 -197 22 -314 58 -446 136 -248 146 -377 350 -411
645 -27 242 2 733 60 1013 20 101 16 133 -20 152 -11 6 -35 8 -55 4 -32 -6
-40 -2 -105 56 -134 118 -283 349 -353 545 -60 169 -95 438 -78 600 26 246
147 496 318 655 170 158 441 279 698 309 92 11 311 6 402 -9z m-1478 -148 c46
-18 92 -39 102 -48 17 -15 15 -19 -26 -79 -50 -73 -120 -216 -160 -326 -148
-409 -100 -856 141 -1293 73 -132 74 -140 30 -240 -63 -142 -174 -193 -278
-127 -65 41 -209 149 -388 290 -85 67 -202 159 -260 204 -138 108 -279 250
-313 313 -59 113 -74 270 -38 419 24 99 96 281 145 369 113 202 316 398 505
487 115 55 190 69 331 66 111 -4 135 -7 209 -35z m2941 3 c166 -53 284 -126
407 -252 179 -182 297 -406 349 -663 31 -155 6 -318 -66 -429 -46 -73 -138
-155 -385 -348 -387 -301 -483 -371 -578 -419 -86 -43 -96 -46 -152 -41 -95 7
-205 74 -205 124 0 8 15 37 33 66 204 319 327 725 327 1080 0 288 -73 519
-230 725 -38 50 -70 94 -70 97 0 2 17 13 38 24 145 74 367 89 532 36z m-671
-2934 c41 -29 61 -64 70 -119 4 -28 6 -54 3 -57 -3 -3 -79 -5 -169 -5 l-163 0
0 45 c0 85 33 131 111 154 44 13 118 4 148 -18z m-579 -412 c0 -6 -15 -26 -34
-45 -24 -24 -43 -34 -65 -34 -65 0 -132 57 -94 79 25 14 193 14 193 0z m1301
-16 c7 -18 8 -41 2 -63 -6 -29 -13 -36 -37 -38 -71 -8 -112 29 -100 92 l6 36
59 0 c56 0 60 -2 70 -27z"/>
<path d="M4398 7280 c-108 -19 -143 -62 -143 -180 1 -130 60 -200 171 -200 62
0 108 28 142 85 46 81 11 254 -59 290 -30 16 -40 17 -111 5z"/>
<path d="M5724 7276 c-44 -19 -71 -59 -84 -121 -14 -66 -2 -111 45 -177 28
-37 40 -46 75 -52 45 -7 98 -1 142 16 44 16 72 87 73 180 0 68 -3 79 -25 103
-53 58 -156 81 -226 51z"/>
<path d="M6085 4638 c-43 -23 -85 -72 -85 -99 0 -33 15 -45 65 -53 39 -6 135
-60 135 -76 0 -13 -70 -65 -125 -93 -59 -29 -105 -70 -105 -91 0 -9 18 -25 39
-36 22 -11 54 -40 71 -65 30 -43 61 -58 75 -35 4 6 8 31 9 56 2 25 11 53 21
65 20 21 104 79 115 79 14 0 50 -99 50 -137 0 -30 7 -46 28 -66 32 -31 62 -34
98 -10 25 16 25 19 19 87 -5 46 -19 99 -41 150 -19 44 -34 83 -34 86 0 4 24
19 53 35 57 31 93 60 109 88 15 28 -60 94 -116 102 -44 7 -69 -8 -65 -37 3
-28 -2 -37 -36 -58 l-34 -21 -71 41 c-39 23 -86 55 -104 71 -37 32 -42 33 -71
17z"/>
<path d="M2421 3581 l-55 -6 -168 -215 c-93 -118 -218 -280 -279 -360 -61 -80
-114 -146 -118 -148 -9 -3 -21 302 -21 540 0 155 -1 168 -19 178 -11 5 -74 10
-140 10 -138 0 -151 -6 -151 -73 -3 -821 2 -1509 11 -1539 12 -47 26 -51 162
-46 69 2 110 8 120 17 15 12 17 40 17 211 0 197 0 199 25 228 14 17 49 65 78
108 29 42 57 79 64 81 13 5 82 -91 281 -387 79 -118 153 -224 163 -235 18 -18
32 -20 172 -19 164 1 193 8 203 48 7 31 -8 60 -61 116 -43 46 -96 119 -244
335 -45 66 -118 170 -162 230 -44 61 -91 131 -104 157 l-25 47 28 23 c15 13
44 48 64 78 21 30 81 105 134 165 120 136 324 407 324 429 0 9 -12 21 -26 26
-27 10 -181 11 -273 1z"/>
<path d="M4043 3581 c-215 -5 -265 -9 -277 -21 -14 -13 -16 -115 -16 -815 -1
-758 0 -800 17 -813 14 -11 50 -13 155 -10 76 3 141 8 145 12 4 4 10 139 13
299 l5 292 93 -1 c137 -1 134 2 356 -365 l142 -234 151 -3 c155 -3 203 5 203
34 0 9 -16 41 -36 72 -196 313 -328 532 -322 536 1 2 28 16 58 32 72 38 161
126 195 195 43 83 55 143 55 270 0 176 -37 278 -141 381 -130 130 -247 151
-796 139z m487 -308 c57 -26 84 -56 104 -116 43 -127 0 -254 -102 -303 -42
-20 -269 -36 -384 -27 l-68 6 0 196 c0 108 3 213 7 235 l6 38 196 -4 c171 -4
202 -7 241 -25z"/>
<path d="M5943 3579 c-46 -13 -50 -40 -15 -102 88 -158 270 -460 353 -583 52
-77 115 -180 139 -229 l45 -88 5 -291 c5 -320 9 -337 68 -353 43 -12 154 -9
189 5 55 24 58 46 55 352 -3 312 -13 267 92 421 26 39 80 131 118 203 39 72
90 160 113 196 86 130 245 420 245 445 0 33 -27 38 -177 29 l-146 -9 -30 -45
c-40 -62 -138 -240 -249 -452 -51 -98 -98 -178 -105 -178 -6 0 -37 48 -69 108
-78 147 -194 347 -271 468 -64 100 -65 102 -110 108 -65 9 -212 6 -250 -5z"/>
<path d="M3074 3559 c-18 -20 -19 -49 -24 -628 -3 -333 -3 -689 0 -789 6 -231
0 -222 165 -222 93 0 117 3 134 18 l22 17 2 803 c2 704 0 804 -13 812 -8 5
-72 10 -141 10 -115 0 -127 -2 -145 -21z"/>
<path d="M5352 3568 c-9 -9 -12 -204 -12 -815 l0 -803 25 -16 c21 -14 45 -16
143 -12 64 3 125 8 134 12 11 5 19 25 23 59 3 29 5 390 3 803 -2 618 -5 754
-17 767 -11 14 -35 17 -150 17 -93 0 -141 -4 -149 -12z"/>
<path d="M7789 3553 c-6 -16 -39 -111 -74 -213 -93 -273 -187 -530 -238 -655
-25 -60 -86 -220 -135 -355 -49 -135 -100 -269 -111 -299 -20 -49 -20 -56 -7
-77 11 -16 29 -25 62 -30 58 -8 206 1 232 15 18 9 99 191 132 294 22 70 7 67
358 67 174 0 323 -4 329 -8 7 -5 36 -80 64 -168 28 -87 57 -169 65 -181 14
-22 21 -23 142 -23 139 0 172 10 172 54 0 26 -82 271 -106 318 -8 16 -44 113
-79 216 -35 103 -115 329 -178 502 -63 173 -135 371 -159 440 l-45 125 -207 3
-206 2 -11 -27z m267 -408 c31 -88 157 -478 169 -522 l6 -23 -225 0 c-124 0
-226 4 -226 9 0 11 154 477 187 564 34 92 49 87 89 -28z"/>
</g>
</svg>
